PathFileType	4	(X/Y/Z)	/Users/niels/Desktop/University/Third Semester/Perception and Action/Exam/Gymnastics Motion Tracking/Code for Gym Tracking/Analyzed Data/Backflip/id3_1_baseline_Sports2D/id3_1_baseline_Sports2D_px_person00.trc
DataRate	CameraRate	NumFrames	NumMarkers	Units	OrigDataRate	OrigDataStartFrame	OrigNumFrames
59.97270866499886	59.97270866499886	9	22	m	59.97270866499886	0	2638
Frame#	Time	Hip			RHip			RKnee			RAnkle			RBigToe			RSmallToe			RHeel			LHip			LKnee			LAnkle			LBigToe			LSmallToe			LHeel			Neck			Head			Nose			RShoulder			RElbow			RWrist			LShoulder			LElbow			LWrist		
		X1	Y1	Z1	X2	Y2	Z2	X3	Y3	Z3	X4	Y4	Z4	X5	Y5	Z5	X6	Y6	Z6	X7	Y7	Z7	X8	Y8	Z8	X9	Y9	Z9	X10	Y10	Z10	X11	Y11	Z11	X12	Y12	Z12	X13	Y13	Z13	X14	Y14	Z14	X15	Y15	Z15	X16	Y16	Z16	X17	Y17	Z17	X18	Y18	Z18	X19	Y19	Z19	X20	Y20	Z20	X21	Y21	Z21	X22	Y22	Z22
0	0.0	0.9832345475858303	-0.5296436002799347	0.0	0.9880501721597803	-0.5284435046499681	0.0	1.0331463723306198	-0.6241488076506198	0.0	0.9812890370566626	-0.7258349515542385	0.0	1.0108285614163888	-0.7459161907565873	0.0	1.0002444039314022	-0.7483453290871666	0.0	0.9707448016212625	-0.7365180259816027	0.0	0.9771010193592371	-0.5296049791977422	0.0	0.982821432587007	-0.6324074874492779	0.0	0.9654112392720128	-0.7340359988061629	0.0	1.0094011189730794	-0.7469682855343938	0.0	1.0048025589349239	-0.7398197893241305	0.0	0.9561444912060938	-0.7458286419548599	0.0	1.0043905265313686	-0.3774338081841306	0.0	1.0516921652528548	-0.3278562942407148	0.0	1.0480741985952666	-0.3680513680838077	0.0	0.9888863950163373	-0.3915171451096006	0.0	0.9638721526009172	-0.46467892520398146	0.0	0.9479923108032174	-0.5344461232618648	0.0	0.9962443090393946	-0.39040847836620635	0.0	0.9833499238684527	-0.46822886412048037	0.0	0.9985444303917402	-0.5307741908747173	0.0
1	0.016674251042851727	0.9844778594727372	-0.5299350604241675	0.0	0.9892868459068521	-0.5289352915335643	0.0	1.032212262925104	-0.6260569164297172	0.0	0.9840299776980327	-0.7293150165766648	0.0	1.0133639463522512	-0.745952909990609	0.0	1.003294872073669	-0.7489267200734917	0.0	0.9738645321829711	-0.7388036485918608	0.0	0.97846252040355	-0.5300854500664599	0.0	0.9832272845613201	-0.6328884584888043	0.0	0.9657012023894519	-0.7354524304806405	0.0	1.0101541775673222	-0.7481550183043222	0.0	1.005367125004574	-0.7413697781337872	0.0	0.9569837815167832	-0.7461578720010351	0.0	1.005458171612532	-0.3778428009474068	0.0	1.052830504681162	-0.327948616528446	0.0	1.0488454270532985	-0.36890748446864224	0.0	0.9901033276435398	-0.39195299117723037	0.0	0.9652494795382225	-0.46483464337170527	0.0	0.951413672528619	-0.535490037779723	0.0	0.9978132973879126	-0.39106571203096513	0.0	0.9848251934936387	-0.4687286034647108	0.0	1.0004171141724858	-0.531379483686301	0.0
2	0.03334850208570345	0.9856932462140102	-0.5302939033979964	0.0	0.9904997679846386	-0.5294984205642458	0.0	1.0312442971847449	-0.6280031302772688	0.0	0.9866164873092427	-0.7327395062250137	0.0	1.015772531866743	-0.7461388116675205	0.0	1.0062130138067338	-0.7496278297574676	0.0	0.9768094985714582	-0.7410773345668902	0.0	0.97980575653065	-0.5306328362925047	0.0	0.9836410051623542	-0.6334650385550541	0.0	0.9659803637191765	-0.7368800631987175	0.0	1.0108605048234125	-0.7493664659240233	0.0	1.005892918363655	-0.7429152547906613	0.0	0.9577863272191893	-0.7465559455615266	0.0	1.0065335518441547	-0.37830252848804746	0.0	1.0539680171124468	-0.3280947108299164	0.0	1.0496420779645381	-0.36978187526859263	0.0	0.991343149118732	-0.3924359785525696	0.0	0.9666688919629081	-0.46507127839540524	0.0	0.9548959060730948	-0.5365856680704296	0.0	0.9993608171616871	-0.3917752919179799	0.0	0.9862858716131474	-0.4692809580428818	0.0	1.002307097155284	-0.5320229834050277	0.0
3	0.050022753128555184	0.9868542137465556	-0.5307623628200249	0.0	0.9916668727898844	-0.530169421441003	0.0	1.0302228463412049	-0.630000198425191	0.0	0.9889082331685494	-0.7360414682354456	0.0	1.0179426717058262	-0.7465710826334534	0.0	1.0088732542932026	-0.7505256631199436	0.0	0.979413675571602	-0.7433095714000839	0.0	0.9811007892357675	-0.5312773153271314	0.0	0.984077536689407	-0.6341940292216908	0.0	0.9662409944996493	-0.73831190283399	0.0	1.011491430073333	-0.7506043969191143	0.0	1.006354239848806	-0.744442841290679	0.0	0.9585191002209172	-0.7470607967319524	0.0	1.0076128682603749	-0.37884701736668275	0.0	1.0550968128483214	-0.3283305665802758	0.0	1.0504738623863434	-0.37068002661586263	0.0	0.9926089506425438	-0.39299717390891825	0.0	0.9681534206978154	-0.4654460981525746	0.0	0.9584712947014259	-0.5377662321872543	0.0	1.0008612894258648	-0.392567982026469	0.0	0.9877094415332699	-0.4699155751733877	0.0	1.0042143252833875	-0.5327316233952045	0.0
4	0.0666970041714069	0.9879422248777983	-0.5313752714507093	0.0	0.9927685223783016	-0.5309736213645746	0.0	1.0291349849633937	-0.6320555282360295	0.0	0.9907967557982593	-0.73917158654175	0.0	1.0197908527078987	-0.7473088050998344	0.0	1.011170920029424	-0.7516606829337819	0.0	0.9815422677239889	-0.7454827857602311	0.0	0.9823266373179176	-0.532044640917043	0.0	0.9845662051036317	-0.6351130080574151	0.0	0.9664799022899531	-0.7397382381491802	0.0	1.0120156154002249	-0.7518709006145154	0.0	1.0067173519783188	-0.7459499343307835	0.0	0.9591549339609283	-0.7476960708282651	0.0	1.0086914842644792	-0.3794993961320885	0.0	1.0562032961999235	-0.3286827188228151	0.0	1.0513452819072602	-0.371603432941305	0.0	0.9939029684525618	-0.3936665809516673	0.0	0.9697260559446893	-0.4660086553996407	0.0	0.9621752717042369	-0.5390580357984998	0.0	1.0022870087197557	-0.3934626403348599	0.0	0.98906964011878	-0.4706612190269599	0.0	1.0061470749857109	-0.5335329681804101	0.0
5	0.08337125521425863	0.9889515515191569	-0.5321568157955304	0.0	0.9937887632738913	-0.5319262649634148	0.0	1.0279778074239838	-0.6341690843686459	0.0	0.9922180987590268	-0.7421019475963757	0.0	1.021268961521737	-0.7483714704998913	0.0	1.0130287146580463	-0.7530365437087184	0.0	0.9831103998003455	-0.7475943786085552	0.0	0.9834804189900841	-0.5329568441881567	0.0	0.9851489697298825	-0.6362400659984427	0.0	0.9667032321978575	-0.7411532158257508	0.0	1.0124026436782643	-0.7531699921417954	0.0	1.0069414003655706	-0.747440532946199	0.0	0.9596782831306758	-0.748472750784384	0.0	1.0097635128445768	-0.3802704875165974	0.0	1.0572710848822002	-0.32916671887306087	0.0	1.0522563678038876	-0.37255236209767245	0.0	0.9952282236428616	-0.3944675713771769	0.0	0.9714078462516924	-0.46679489063006413	0.0	0.9660411626616833	-0.5404767122283655	0.0	1.0036099611122222	-0.3944654599067653	0.0	0.9903401709204236	-0.4715432199429852	0.0	1.0081146949015167	-0.5344539038315609	0.0
6	0.10004550625711037	0.9898888213472913	-0.533120326518385	0.0	0.9947139061172527	-0.5330381771000254	0.0	1.026758498939672	-0.6363339817822653	0.0	0.9931538256182384	-0.7448246235023275	0.0	1.0223592965183	-0.7497415245069495	0.0	1.0143973035573788	-0.7546243841944466	0.0	0.9840882732545491	-0.7496543775478604	0.0	0.9845819053873276	-0.5340320166880569	0.0	0.9858753131470831	-0.6375768549104983	0.0	0.9669313188165133	-0.7425597906822466	0.0	1.0126270001965787	-0.7545037368730396	0.0	1.0069839044145155	-0.7489188809252043	0.0	0.9600900432138244	-0.7493946341767243	0.0	1.010823041300644	-0.38116149124236604	0.0	1.058287811451274	-0.3297879358079334	0.0	1.0532052876393894	-0.37352886627097653	0.0	0.9965902829475086	-0.39541365775308446	0.0	0.9732172617944526	-0.4678244362695178	0.0	0.9700966504619276	-0.5420263074450766	0.0	1.0048051962167286	-0.3955737139223129	0.0	0.9914980854337839	-0.47258126877948997	0.0	1.010116311724391	-0.5355195899467176	0.0
7	0.11671975729996209	0.9907662635813234	-0.5342699495137024	0.0	0.995530287318059	-0.5343200289956238	0.0	1.0254922675542295	-0.6385387535202156	0.0	0.9936192990582626	-0.7473425633674399	0.0	1.0230581302007937	-0.7513680567582907	0.0	1.0152500593557683	-0.756367331674226	0.0	0.9844901560243514	-0.7516722804920279	0.0	0.9856677630858831	-0.5352826305845626	0.0	0.9867950609032456	-0.6391110037989982	0.0	0.9671973963009591	-0.7439694365799043	0.0	1.0126753313916623	-0.7558682355469193	0.0	1.006812061804094	-0.75038876370447	0.0	0.9604055640391969	-0.7504622472112265	0.0	1.0118662194003003	-0.3821689971257082	0.0	1.0592505194076396	-0.33054383201239484	0.0	1.0541898430877983	-0.37453722760667224	0.0	0.9979969868040854	-0.3965085925828538	0.0	0.975169181395571	-0.46910031107458827	0.0	0.9743619828192353	-0.543698724202573	0.0	1.005856383777584	-0.39677954349539885	0.0	0.9925259339084351	-0.473787933422663	0.0	1.0121315131082678	-0.5367524771069311	0.0
8	0.1333940083428138	0.991593763436535	-0.5356013505204366	0.0	0.9962265184427403	-0.5357780600323586	0.0	1.0242009735420512	-0.6407671848807637	0.0	0.9936467653036979	-0.7496591417341256	0.0	1.0233607592441085	-0.7531721304502303	0.0	1.015578239561647	-0.7581871067080452	0.0	0.9843553146479155	-0.7536388149379067	0.0	0.9867768253902571	-0.5367115014062995	0.0	0.9879508948166205	-0.6408164581680541	0.0	0.9675389785793443	-0.7453982906135879	0.0	1.0125568642746414	-0.7572603619149392	0.0	1.0064178763039828	-0.7518635886491909	0.0	0.9606464863425553	-0.7516717259603581	0.0	1.0128922870063426	-0.38328701965334117	0.0	1.060165353596038	-0.33142593108489155	0.0	1.0552065022481936	-0.3755818658744304	0.0	0.999454652702946	-0.3977481965621715	0.0	0.977272313643586	-0.470609454730462	0.0	0.9788476687690839	-0.5454724035932734	0.0	1.0067603242787355	-0.39807149759810656	0.0	0.9934107336297134	-0.4751663049876541	0.0	1.014114275913052	-0.5381702126256424	0.0
